{"title":"Public Pick Ups Direct Me To Your Pussy Alexis Leon","uid":9164551,"size":273333970,"categoryP":"porn","categoryS":"movie_clips","magnet":"?xt=urn:btih:6865d589c534d5e959d427615119a1590117c3fe&amp;dn=Public+Pick+Ups+Direct+Me+To+Your+Pussy+Alexis+Leon&amp;tr=udp%3A%2F%2Ftracker.openbittorrent.com%3A80&amp;tr=udp%3A%2F%2Fopen.demonii.com%3A1337&amp;tr=udp%3A%2F%2Ftracker.coppersurfer.tk%3A6969&amp;tr=udp%3A%2F%2Fexodus.desync.com%3A6969","seeders":0,"leechers":1,"uploader":null,"files":2,"time":1383945092,"description":" &lt;a href=&quot;http://bayimg.com/DacfJAAfc&quot; rel=&quot;nofollow&quot; target=&quot;_NEW&quot;&gt;http://bayimg.com/DacfJAAfc&lt;/a&gt;\n\nDude spotted Alexis Leone walking home, and pretended to be lost so she'd show him around. He offered her a nice stack of cash to show him her curvy..\n\nnote: the other one uploaded here has a bigger size.\n\nFormat : MPEG-4\nFormat profile : Base Media\nCodec ID : isom\nFile size : 260 MiB\nDuration : 38mn 52s\nOverall bit rate : 933 Kbps\nWriting application : Lavf54.37.100\n\nVideo\nID : 1\nFormat : AVC\nFormat/Info : Advanced Video Codec\nFormat profile : &lt;a class=&quot;__cf_email__&quot; href=&quot;/cdn-cgi/l/email-protection&quot; data-cfemail=&quot;f0b8999798b0bcc3dec1&quot;&gt;[email&amp;#160;protected]&lt;/a&gt;&lt;script cf-hash='f9e31' type=&quot;text/javascript&quot;&gt;\n/* &lt;![CDATA[ */!function(){try{var t=&quot;currentScript&quot;in document?document.currentScript:function(){for(var t=document.getElementsByTagName(&quot;script&quot;),e=t.length;e--;)if(t[e].getAttribute(&quot;cf-hash&quot;))return t[e]}();if(t&amp;&amp;t.previousSibling){var e,r,n,i,c=t.previousSibling,a=c.getAttribute(&quot;data-cfemail&quot;);if(a){for(e=&quot;&quot;,r=parseInt(a.substr(0,2),16),n=2;a.length-n;n+=2)i=parseInt(a.substr(n,2),16)^r,e+=String.fromCharCode(i);e=document.createTextNode(e),c.parentNode.replaceChild(e,c)}}}catch(u){}}();/* ]]&gt; */&lt;/script&gt;\nFormat settings, CABAC : Yes\nFormat settings, ReFrames : 5 frames\nCodec ID : avc1\nCodec ID/Info : Advanced Video Coding\nDuration : 38mn 52s\nBit rate : 750 Kbps\nWidth : 640 pixels\nHeight : 368 pixels\nDisplay aspect ratio : 16:9\nOriginal display aspect ratio : 16:9\nFrame rate mode : Constant\nFrame rate : 23.976 fps\nColor space : YUV\nChroma subsampling : 4:2:0\nBit depth : 8 bits\nScan type : Progressive\nBits/(Pixel*Frame) : 0.133\nStream size : 210 MiB (81%)\nWriting library : x264 core 128 r2216 198a7ea\n\nAudio\nID : 2\nFormat : AAC\nFormat/Info : Advanced Audio Codec\nFormat profile : LC\nCodec ID : 40\nDuration : 38mn 52s\nDuration_LastFrame : -9ms\nBit rate mode : Constant\nBit rate : 128 Kbps\nChannel(s) : 2 channels\nChannel positions : Front: L R\nSampling rate : 48.0 KHz\nCompression mode : Lossy\nStream size : 35.6 MiB (14%)\nTagged date : UTC 2013-10-07 20:05:45 ","torrent":{"xt":"urn:btih:6865d589c534d5e959d427615119a1590117c3fe","amp;dn":"Public+Pick+Ups+Direct+Me+To+Your+Pussy+Alexis+Leon","amp;tr":["udp%3A%2F%2Ftracker.openbittorrent.com%3A80","udp%3A%2F%2Fopen.demonii.com%3A1337","udp%3A%2F%2Ftracker.coppersurfer.tk%3A6969","udp%3A%2F%2Fexodus.desync.com%3A6969"],"infoHash":"6865d589c534d5e959d427615119a1590117c3fe","infoHashBuffer":{"type":"Buffer","data":[104,101,213,137,197,52,213,233,89,212,39,97,81,25,161,89,1,23,195,254]},"announce":[],"urlList":[]}}